<svg xmlns="http://www.w3.org/2000/svg" viewBox="637.75 77.30 411.19 536" width="379.19" height="503.99"><g id="41910378-23f1-40c5-04ee-ac7e57276afb_svg" class="tl-centered-g" transform="translate(770.5965116279068, 360.81) rotate(0, 68.89, 118.24)"><g opacity="1"><path d="M -0.24,4.16 Q -0.24,4.16 19.00,3.28 38.25,2.41 50.14,1.98 62.02,1.55 71.51,0.97 80.99,0.39 87.22,-0.08 93.44,-0.56 99.88,-1.00 106.31,-1.43 111.12,-1.66 115.92,-1.89 119.31,-2.20 122.70,-2.51 127.26,-3.07 131.82,-3.62 135.38,-2.63 138.94,-1.63 139.55,2.89 140.15,7.42 138.09,11.26 136.02,15.10 132.86,20.86 129.69,26.63 124.90,34.91 120.11,43.19 112.78,56.51 105.44,69.84 97.89,83.21 90.35,96.59 81.22,112.24 72.10,127.89 64.33,140.84 56.56,153.80 50.03,164.16 43.50,174.52 38.67,182.46 33.84,190.40 29.67,197.06 25.51,203.71 22.45,208.35 19.39,212.98 17.28,216.31 15.17,219.65 13.65,222.34 12.13,225.02 10.75,227.97 9.38,230.91 6.30,235.09 3.22,239.27 2.69,239.71 2.16,240.15 1.52,240.40 0.87,240.65 0.19,240.68 -0.49,240.71 -1.16,240.52 -1.82,240.33 -2.38,239.94 -2.95,239.55 -3.36,239.00 -3.78,238.44 -3.99,237.79 -4.20,237.13 -4.20,236.44 -4.19,235.75 -3.97,235.10 -3.74,234.45 -3.32,233.91 -2.90,233.36 -2.32,232.98 -1.75,232.60 -1.08,232.42 -0.42,232.24 0.26,232.29 0.95,232.33 1.59,232.59 2.22,232.85 2.74,233.30 3.27,233.75 3.62,234.35 3.97,234.94 4.11,235.61 4.25,236.29 4.17,236.97 4.09,237.66 3.79,238.28 3.50,238.90 3.02,239.40 2.54,239.90 1.93,240.21 1.32,240.53 0.64,240.64 -0.03,240.74 -0.71,240.62 -1.39,240.51 -2.00,240.18 -2.60,239.85 -3.07,239.34 -3.54,238.84 -3.83,238.21 -4.11,237.58 -4.18,236.90 -4.25,236.21 -4.09,235.54 -3.94,234.87 -3.58,234.28 -3.22,233.69 -3.22,233.69 -3.22,233.69 -0.28,230.56 2.65,227.42 4.94,224.61 7.23,221.81 9.09,219.34 10.95,216.88 13.17,213.62 15.39,210.35 18.38,205.75 21.38,201.15 25.49,194.49 29.60,187.84 34.40,179.83 39.20,171.82 45.62,161.47 52.05,151.12 59.70,138.13 67.35,125.14 76.31,109.46 85.26,93.77 92.59,80.32 99.92,66.87 107.01,53.37 114.09,39.88 118.45,31.54 122.80,23.20 125.46,17.23 128.13,11.25 130.06,7.55 132.00,3.86 127.48,3.57 122.97,3.28 119.60,3.28 116.23,3.29 111.49,3.62 106.74,3.96 100.36,4.54 93.98,5.12 87.72,5.81 81.45,6.50 71.91,7.36 62.37,8.22 50.53,9.04 38.69,9.85 19.47,11.23 0.24,12.61 -0.26,12.57 -0.77,12.54 -1.25,12.39 -1.74,12.24 -2.18,11.97 -2.61,11.71 -2.97,11.35 -3.33,10.98 -3.59,10.55 -3.86,10.11 -4.01,9.62 -4.16,9.14 -4.19,8.63 -4.22,8.12 -4.13,7.62 -4.03,7.11 -3.82,6.65 -3.61,6.18 -3.30,5.78 -2.98,5.38 -2.58,5.07 -2.18,4.75 -1.71,4.55 -1.25,4.34 -0.74,4.25 Z" fill="#ff2133" stroke="#ff2133" stroke-width="2.5" stroke-linejoin="round" stroke-linecap="round" pointer-events="all"/></g></g><g id="e5f0b91c-28f3-447f-227b-db8b4ceb2ed8_svg" class="tl-centered-g" transform="translate(653.75, 126.00) rotate(0, 166.45, 9.22)"><g opacity="1"><path d="M -0.15,15.06 Q -0.15,15.06 32.40,13.71 64.97,12.35 85.92,11.44 106.86,10.53 124.86,9.86 142.86,9.19 161.92,8.27 180.97,7.35 196.69,6.66 212.41,5.98 225.78,5.42 239.15,4.86 251.99,4.55 264.82,4.25 274.13,4.08 283.44,3.92 290.24,3.46 297.05,3.00 314.80,0.33 332.55,-2.32 332.93,-2.32 333.31,-2.31 333.67,-2.18 334.03,-2.06 334.33,-1.82 334.63,-1.59 334.84,-1.27 335.04,-0.95 335.14,-0.59 335.24,-0.22 335.21,0.15 335.19,0.53 335.04,0.88 334.90,1.23 334.65,1.52 334.40,1.81 334.07,2.00 333.74,2.19 333.37,2.27 332.99,2.34 332.62,2.30 332.24,2.25 331.89,2.09 331.55,1.92 331.28,1.66 331.01,1.39 330.83,1.05 330.66,0.72 330.60,0.34 330.55,-0.03 330.61,-0.40 330.68,-0.78 330.86,-1.11 331.04,-1.44 331.32,-1.70 331.60,-1.96 331.95,-2.11 332.30,-2.27 332.68,-2.31 333.06,-2.34 333.43,-2.25 333.80,-2.17 334.12,-1.97 334.44,-1.77 334.69,-1.47 334.93,-1.18 335.06,-0.82 335.20,-0.47 335.22,-0.09 335.23,0.28 335.12,0.65 335.02,1.01 334.80,1.32 334.58,1.64 334.28,1.86 333.97,2.09 333.61,2.20 333.25,2.32 333.25,2.32 333.25,2.32 315.31,5.02 297.37,7.72 290.45,8.21 283.53,8.70 274.24,8.90 264.95,9.09 252.16,9.44 239.37,9.79 226.01,10.41 212.64,11.02 196.94,11.79 181.24,12.56 162.16,13.60 143.09,14.63 125.12,15.46 107.14,16.29 86.20,17.41 65.25,18.53 32.70,20.18 0.15,21.83 -0.25,21.80 -0.65,21.77 -1.04,21.64 -1.43,21.51 -1.78,21.30 -2.12,21.08 -2.41,20.79 -2.69,20.49 -2.90,20.14 -3.10,19.79 -3.22,19.40 -3.33,19.01 -3.35,18.60 -3.37,18.19 -3.29,17.79 -3.21,17.39 -3.04,17.02 -2.87,16.65 -2.61,16.33 -2.35,16.02 -2.03,15.77 -1.70,15.52 -1.33,15.36 -0.96,15.20 -0.55,15.13 Z" fill="#1d1d1d" stroke="#1d1d1d" stroke-width="2.5" stroke-linejoin="round" stroke-linecap="round" pointer-events="all"/></g></g><g id="80a79c30-04d1-4dae-1ddd-3170b9a110f0_svg" class="tl-centered-g" transform="translate(953.5825581395346, 93.30) rotate(0, 39.68, 46.12)"><g opacity="1"><path d="M 1.56,-4.68 Q 1.56,-4.68 15.51,0.32 29.46,5.33 38.41,8.74 47.35,12.15 52.76,14.26 58.17,16.38 62.19,18.17 66.22,19.96 70.88,21.46 75.53,22.97 78.07,24.24 80.61,25.51 81.36,29.49 82.11,33.47 78.76,36.30 75.40,39.13 70.24,42.27 65.08,45.41 60.06,48.73 55.04,52.05 51.24,54.60 47.44,57.16 42.64,60.77 37.85,64.38 34.24,67.45 30.62,70.52 27.38,73.51 24.14,76.51 21.17,79.78 18.19,83.06 13.93,88.42 9.67,93.78 9.38,94.06 9.08,94.33 8.71,94.49 8.34,94.66 7.94,94.69 7.54,94.73 7.14,94.64 6.75,94.54 6.41,94.33 6.06,94.12 5.81,93.80 5.55,93.49 5.41,93.12 5.27,92.74 5.25,92.33 5.24,91.93 5.35,91.54 5.46,91.16 5.70,90.83 5.93,90.50 6.25,90.26 6.58,90.02 6.96,89.89 7.35,89.77 7.75,89.78 8.16,89.79 8.54,89.92 8.92,90.06 9.23,90.31 9.55,90.56 9.77,90.89 9.99,91.23 10.09,91.62 10.20,92.01 10.17,92.41 10.14,92.82 9.98,93.19 9.83,93.56 9.56,93.87 9.30,94.17 8.95,94.37 8.60,94.57 8.20,94.65 7.81,94.74 7.40,94.68 7.00,94.63 6.64,94.46 6.28,94.28 5.99,94.00 5.70,93.72 5.52,93.36 5.33,93.00 5.27,92.60 5.22,92.20 5.29,91.80 5.36,91.41 5.55,91.05 5.75,90.70 5.75,90.70 5.75,90.70 10.05,85.17 14.35,79.65 17.41,76.15 20.47,72.65 23.69,69.48 26.92,66.32 30.54,63.00 34.16,59.69 38.90,55.81 43.63,51.93 47.25,49.08 50.88,46.23 55.71,42.49 60.55,38.74 66.69,34.45 72.83,30.15 68.36,27.90 63.90,25.66 59.91,24.19 55.93,22.72 50.40,20.97 44.87,19.22 35.82,16.32 26.76,13.42 12.60,9.05 -1.56,4.68 -2.10,4.43 -2.64,4.17 -3.10,3.80 -3.56,3.42 -3.92,2.94 -4.27,2.47 -4.51,1.92 -4.74,1.37 -4.84,0.78 -4.93,0.19 -4.88,-0.39 -4.84,-0.98 -4.65,-1.55 -4.46,-2.11 -4.14,-2.62 -3.82,-3.12 -3.39,-3.53 -2.96,-3.94 -2.45,-4.24 -1.93,-4.54 -1.36,-4.71 -0.79,-4.87 -0.19,-4.90 0.39,-4.92 0.98,-4.80 Z" fill="#1d1d1d" stroke="#1d1d1d" stroke-width="2.5" stroke-linejoin="round" stroke-linecap="round" pointer-events="all"/></g></g><g id="ae6d4088-b9eb-40e5-26a2-bdf451f9fa27_svg" class="tl-centered-g" transform="translate(674.6941860465117, 185.54) rotate(0, 103.61, 124.11)"><g opacity="1"><path d="M 205.57,21.40 Q 205.57,21.40 199.97,18.08 194.37,14.76 190.61,12.75 186.85,10.74 182.92,9.28 179.00,7.83 174.86,6.62 170.72,5.42 166.09,4.76 161.46,4.11 154.47,3.73 147.48,3.35 140.25,3.87 133.03,4.40 125.35,5.62 117.68,6.83 110.06,8.98 102.45,11.13 93.42,15.45 84.39,19.77 76.47,24.93 68.55,30.09 61.52,36.26 54.49,42.44 46.96,51.58 39.43,60.73 33.05,70.27 26.67,79.81 21.95,89.31 17.22,98.82 13.90,109.97 10.58,121.11 8.74,131.01 6.89,140.90 6.62,150.00 6.34,159.11 8.37,169.04 10.41,178.97 13.70,187.23 17.00,195.48 20.99,202.23 24.98,208.99 31.26,215.41 37.54,221.83 44.13,226.29 50.71,230.74 59.41,234.11 68.10,237.47 74.89,239.36 81.67,241.25 90.45,241.90 99.22,242.54 107.26,242.17 115.29,241.80 122.39,240.67 129.49,239.54 136.72,236.90 143.96,234.26 149.40,231.34 154.84,228.42 159.46,224.46 164.08,220.51 167.11,217.05 170.15,213.59 177.79,201.36 185.43,189.13 185.68,188.85 185.93,188.57 186.25,188.39 186.57,188.20 186.94,188.13 187.31,188.05 187.68,188.10 188.05,188.15 188.38,188.31 188.72,188.47 188.99,188.73 189.25,188.99 189.42,189.33 189.59,189.66 189.64,190.03 189.70,190.40 189.63,190.77 189.56,191.13 189.38,191.46 189.20,191.79 188.93,192.04 188.65,192.29 188.31,192.44 187.97,192.59 187.60,192.63 187.22,192.66 186.86,192.57 186.50,192.49 186.18,192.29 185.87,192.09 185.63,191.80 185.39,191.51 185.26,191.16 185.13,190.81 185.11,190.44 185.10,190.07 185.21,189.71 185.31,189.35 185.53,189.05 185.74,188.74 186.05,188.52 186.35,188.30 186.70,188.19 187.06,188.07 187.43,188.08 187.80,188.09 188.16,188.21 188.51,188.34 188.80,188.57 189.09,188.80 189.30,189.11 189.50,189.43 189.59,189.79 189.69,190.15 189.66,190.52 189.63,190.89 189.49,191.24 189.35,191.58 189.35,191.58 189.35,191.58 181.48,204.11 173.62,216.64 170.34,220.33 167.07,224.02 162.05,228.25 157.04,232.48 151.29,235.54 145.54,238.60 137.88,241.35 130.22,244.10 122.86,245.25 115.50,246.41 107.19,246.78 98.87,247.15 89.66,246.42 80.45,245.69 73.44,243.73 66.42,241.77 57.28,238.17 48.14,234.57 41.19,229.82 34.24,225.06 27.63,218.21 21.02,211.35 16.87,204.27 12.71,197.19 9.30,188.55 5.88,179.90 3.80,169.44 1.72,158.99 2.03,149.52 2.35,140.06 4.25,129.92 6.15,119.79 9.61,108.28 13.07,96.77 17.94,87.00 22.81,77.23 29.33,67.50 35.85,57.78 43.63,48.36 51.41,38.94 58.70,32.56 65.99,26.18 74.18,20.85 82.36,15.53 91.76,11.05 101.15,6.57 109.04,4.34 116.92,2.11 124.79,0.84 132.67,-0.42 140.19,-1.00 147.72,-1.57 154.93,-1.23 162.13,-0.89 167.12,-0.25 172.11,0.39 176.47,1.54 180.82,2.69 185.12,4.14 189.43,5.59 193.42,7.48 197.40,9.37 203.15,12.43 208.89,15.49 209.22,15.73 209.55,15.98 209.81,16.29 210.07,16.60 210.25,16.97 210.43,17.34 210.52,17.73 210.60,18.13 210.59,18.54 210.58,18.95 210.47,19.34 210.36,19.74 210.16,20.09 209.96,20.45 209.68,20.75 209.40,21.04 209.06,21.26 208.72,21.49 208.33,21.62 207.95,21.75 207.54,21.79 207.13,21.83 206.73,21.77 206.33,21.71 205.95,21.55 Z" fill="#ff2133" stroke="#ff2133" stroke-width="2.5" stroke-linejoin="round" stroke-linecap="round" pointer-events="all"/></g></g></svg>