<svg version="1.1" xmlns="http://www.w3.org/2000/svg" viewBox="0 0 595 580" width="595" height="580">
  <!-- svg-source:excalidraw -->
  
  <defs>
    <style class="style-fonts">
      @font-face {
        font-family: "Virgil";
        src: url("https://excalidraw.com/Virgil.woff2");
      }
      @font-face {
        font-family: "Cascadia";
        src: url("https://excalidraw.com/Cascadia.woff2");
      }
      @font-face {
        font-family: "Assistant";
        src: url("https://excalidraw.com/Assistant-Regular.woff2");
      }
    </style>
    
  </defs>
  <g stroke-linecap="round" transform="translate(10 10) rotate(0 287.5 280)"><path d="M203.74 13.04 C222.58 2.53, 247.42 1.37, 269.46 -0.11 C291.5 -1.58, 314.42 0.49, 335.95 4.18 C357.48 7.87, 378.42 13.85, 398.67 22.03 C418.91 30.21, 439.49 40.63, 457.4 53.26 C475.3 65.89, 491.88 81.32, 506.09 97.8 C520.29 114.28, 532.53 132.8, 542.62 152.16 C552.7 171.51, 561.18 192.9, 566.58 213.93 C571.98 234.96, 574.76 256.86, 575.02 278.33 C575.27 299.8, 573.14 321.91, 568.1 342.73 C563.06 363.56, 554.73 384.16, 544.78 403.26 C534.83 422.36, 522.49 440.5, 508.41 457.32 C494.32 474.14, 477.82 491.15, 460.28 504.17 C442.74 517.19, 423.41 526.85, 403.15 535.44 C382.9 544.02, 360.41 551.78, 338.75 555.65 C317.09 559.53, 295.24 559.94, 273.2 558.7 C251.15 557.47, 227.7 554.01, 206.47 548.25 C185.25 542.49, 165.04 534.73, 145.84 524.15 C126.64 513.57, 107.43 499.57, 91.27 484.76 C75.12 469.95, 61.04 453.08, 48.92 435.28 C36.79 417.48, 26.18 398.11, 18.54 377.97 C10.89 357.83, 5.8 335.79, 3.04 314.42 C0.28 293.06, -0.38 271.03, 1.98 249.75 C4.34 228.48, 9.79 207.04, 17.18 186.78 C24.57 166.53, 34.42 146.55, 46.32 128.24 C58.23 109.93, 72.58 91.98, 88.61 76.94 C104.65 61.9, 122.8 48.81, 142.52 37.99 C162.25 27.18, 195.61 15.74, 206.96 12.03 C218.31 8.32, 209.54 11.35, 210.63 15.73 M396.34 19.4 C417.57 23.16, 437.45 39.85, 455.18 52.43 C472.92 65.02, 488.27 78.71, 502.76 94.91 C517.26 111.1, 531.74 130.41, 542.15 149.6 C552.55 168.79, 559.85 189.13, 565.2 210.06 C570.54 230.98, 573.82 253.55, 574.24 275.17 C574.66 296.8, 572.29 318.94, 567.71 339.83 C563.13 360.71, 555.92 381.31, 546.75 400.48 C537.58 419.64, 526.39 438, 512.71 454.82 C499.04 471.64, 482.49 487.83, 464.7 501.38 C446.92 514.93, 426.54 527.18, 406.02 536.12 C385.5 545.05, 363.37 551.09, 341.58 554.99 C319.8 558.89, 297.16 560.31, 275.32 559.52 C253.48 558.73, 231.88 555.8, 210.55 550.24 C189.23 544.68, 166.63 536.67, 147.37 526.17 C128.11 515.67, 111.03 501.66, 95 487.24 C78.97 472.82, 63.58 457.49, 51.17 439.64 C38.76 421.78, 28.55 400.67, 20.54 380.13 C12.53 359.58, 6.42 337.36, 3.12 316.37 C-0.18 295.38, -1.16 275.11, 0.75 254.18 C2.67 233.24, 7.11 211.12, 14.62 190.76 C22.13 170.4, 33.76 150.52, 45.81 132.01 C57.85 113.5, 71.6 95.07, 86.9 79.7 C102.21 64.34, 118.86 50.96, 137.64 39.81 C156.42 28.65, 178.38 19.09, 199.59 12.75 C220.8 6.41, 242.83 3.35, 264.89 1.76 C286.95 0.17, 309.89 -0.01, 331.94 3.2 C354 6.41, 386.65 17.39, 397.21 21 C407.78 24.6, 397.5 20.55, 395.34 24.82" stroke="none" stroke-width="0" fill="#fff9db"></path><path d="M209.28 9.93 C228.29 0.2, 252.21 1.7, 274.11 0.97 C296.01 0.24, 319.08 1.64, 340.68 5.57 C362.27 9.49, 383.43 15.73, 403.68 24.52 C423.93 33.32, 444.56 45.15, 462.18 58.34 C479.81 71.52, 495.35 87.09, 509.42 103.63 C523.48 120.17, 536.71 138.45, 546.56 157.61 C556.41 176.76, 563.67 197.76, 568.52 218.57 C573.37 239.38, 576.17 261, 575.66 282.47 C575.15 303.94, 571.04 326.45, 565.46 347.42 C559.89 368.39, 552.36 388.99, 542.21 408.3 C532.07 427.6, 518.75 446.93, 504.58 463.28 C490.4 479.63, 474.92 493.94, 457.16 506.42 C439.4 518.89, 418.52 529.92, 398.02 538.15 C377.52 546.38, 356.01 552.15, 334.17 555.81 C312.33 559.46, 289.07 561.48, 267 560.1 C244.93 558.71, 222.76 554.07, 201.75 547.51 C180.73 540.94, 159.92 531.81, 140.91 520.71 C121.9 509.6, 103.6 495.99, 87.69 480.88 C71.78 465.76, 57.19 447.96, 45.43 430.01 C33.66 412.06, 24.53 393.39, 17.09 373.18 C9.64 352.97, 3.08 330.18, 0.76 308.75 C-1.56 287.32, 0.08 266.01, 3.18 244.6 C6.28 223.2, 11.53 200.52, 19.35 180.31 C27.17 160.1, 38.03 141.19, 50.12 123.34 C62.21 105.49, 75.86 87.81, 91.89 73.21 C107.93 58.61, 124.53 46.68, 146.33 35.75 C168.13 24.82, 207.21 11.86, 222.67 7.63 C238.13 3.41, 238.11 5.92, 239.1 10.39 M306.34 1.81 C327.35 -1.41, 349.47 5.49, 370.6 11.46 C391.74 17.42, 413.99 26.71, 433.14 37.61 C452.29 48.52, 469.55 61.74, 485.5 76.89 C501.45 92.04, 516.48 110.51, 528.83 128.49 C541.17 146.47, 552.18 164.71, 559.57 184.76 C566.97 204.81, 570.82 227.42, 573.19 248.79 C575.55 270.16, 576.52 291.66, 573.76 312.98 C571 334.31, 564.43 356.56, 556.63 376.72 C548.83 396.88, 538.86 415.94, 526.95 433.96 C515.05 451.98, 501.26 469.96, 485.21 484.87 C469.17 499.78, 450.24 512.73, 430.69 523.42 C411.14 534.1, 389.03 542.91, 367.92 548.98 C346.82 555.06, 325.83 558.73, 304.07 559.87 C282.3 561.02, 259.29 559.57, 237.34 555.86 C215.38 552.15, 192.82 546.4, 172.34 537.63 C151.86 528.86, 131.97 516.26, 114.44 503.23 C96.92 490.19, 81.32 476.12, 67.18 459.42 C53.04 442.73, 39.35 422.24, 29.62 403.06 C19.88 383.89, 13.86 365.02, 8.78 344.38 C3.7 323.75, -0.58 300.74, -0.87 279.26 C-1.16 257.79, 1.84 236.37, 7.04 215.52 C12.24 194.66, 20.19 173.3, 30.33 154.13 C40.48 134.95, 53.4 117.06, 67.89 100.49 C82.38 83.91, 99.36 67.64, 117.27 54.68 C135.18 41.72, 155.06 31.19, 175.37 22.75 C195.67 14.3, 217.3 7.9, 239.12 4 C260.93 0.1, 295.44 -0.77, 306.26 -0.65 C317.07 -0.53, 304.48 -0.02, 303.99 4.72" stroke="#1e1e1e" stroke-width="2" fill="none"></path></g><g transform="translate(155 188) rotate(0 -1 0)" stroke="none"><path d="M-1.34 -0.4 C-1.62 -0.78, -1.32 -1.14, -1.18 -1.13 C-1.03 -1.12, -0.48 -0.5, -0.46 -0.35" stroke="none" stroke-width="0" fill="#fff9db" fill-rule="evenodd"></path><path fill="#e03131" d="M 4.24,-1.32 Q 4.24,-1.32 4.30,-0.26 4.36,0.80 3.93,1.76 3.49,2.73 2.65,3.39 1.82,4.05 0.77,4.24 -0.26,4.43 -1.28,4.11 -2.29,3.80 -3.04,3.04 -3.80,2.29 -4.11,1.28 -4.43,0.26 -4.24,-0.77 -4.04,-1.82 -3.39,-2.65 -2.73,-3.49 -1.76,-3.93 -0.79,-4.36 0.26,-4.30 1.32,-4.23 2.23,-3.68 3.14,-3.13 3.69,-2.23 L 4.24,-1.32 Z"></path></g><g transform="translate(479 298) rotate(0 0.00004999999998744897 0.00004999999998744897)" stroke="none"><path fill="#e03131" d="M 3.14,-3.14 Q 3.14,-3.14 3.55,-2.55 3.97,-1.97 4.18,-1.28 4.40,-0.59 4.38,0.11 4.36,0.83 4.11,1.51 3.86,2.18 3.41,2.74 2.96,3.30 2.36,3.69 1.75,4.08 1.05,4.25 0.36,4.42 -0.35,4.36 -1.07,4.31 -1.73,4.02 -2.39,3.74 -2.92,3.26 -3.46,2.78 -3.81,2.15 -4.16,1.53 -4.30,0.82 -4.43,0.11 -4.34,-0.59 -4.24,-1.30 -3.92,-1.94 -3.60,-2.59 -3.09,-3.09 -2.59,-3.60 -1.94,-3.92 -1.30,-4.24 -0.59,-4.34 0.12,-4.43 0.82,-4.30 1.53,-4.16 2.15,-3.81 2.78,-3.46 3.26,-2.92 3.74,-2.39 4.02,-1.73 4.31,-1.07 4.36,-0.35 4.42,0.36 4.25,1.05 4.07,1.75 3.69,2.36 3.30,2.96 2.74,3.41 2.18,3.86 1.51,4.11 0.83,4.36 0.11,4.38 -0.60,4.40 -1.28,4.18 -1.97,3.97 -2.55,3.55 -3.14,3.13 -3.14,3.14 -3.14,3.14 -3.47,2.71 -3.80,2.29 -4.02,1.80 -4.24,1.32 -4.33,0.79 -4.43,0.26 -4.40,-0.26 -4.36,-0.80 -4.20,-1.31 -4.04,-1.82 -3.77,-2.28 -3.49,-2.73 -3.11,-3.11 -2.73,-3.49 -2.28,-3.77 -1.82,-4.05 -1.31,-4.20 -0.80,-4.36 -0.26,-4.40 0.26,-4.43 0.79,-4.33 1.32,-4.24 1.80,-4.02 2.29,-3.80 2.71,-3.47 3.14,-3.14 3.14,-3.14 L 3.14,-3.14 Z"></path></g><g stroke-linecap="round"><g transform="translate(156 187) rotate(0 99.5 -84)"><path d="M-0.04 -0.16 C33.36 -28.25, 166.1 -141.07, 199.29 -169.13 M-1.52 -1.29 C31.84 -29.22, 165.18 -140.48, 198.5 -168.19" stroke="#1971c2" stroke-width="2" fill="none"></path></g></g><mask></mask><g stroke-linecap="round"><g transform="translate(357 15) rotate(0 60.5 140.5)"><path d="M0.01 0.31 C20.26 47.1, 101.19 235.01, 121.47 281.81 M-1.45 -0.58 C18.7 46.4, 100.31 232.94, 120.76 280.12" stroke="#1971c2" stroke-width="2" fill="none"></path></g></g><mask></mask><g transform="translate(147 200) rotate(0 6.5625 12.5)"><text x="0" y="17.52" font-family="Virgil, Segoe UI Emoji" font-size="20px" fill="#e03131" text-anchor="start" style="white-space: pre;" direction="ltr" dominant-baseline="alphabetic">A</text></g><g transform="translate(471 314) rotate(0 7.270833492279053 12.5)"><text x="0" y="17.52" font-family="Virgil, Segoe UI Emoji" font-size="20px" fill="#e03131" text-anchor="start" style="white-space: pre;" direction="ltr" dominant-baseline="alphabetic">B</text></g></svg>