<?xml version="1.0" encoding="utf-8" standalone="no"?>
<!DOCTYPE svg PUBLIC "-//W3C//DTD SVG 1.1//EN"
  "http://www.w3.org/Graphics/SVG/1.1/DTD/svg11.dtd">
<svg xmlns:xlink="http://www.w3.org/1999/xlink" width="460.8pt" height="345.6pt" viewBox="0 0 460.8 345.6" xmlns="http://www.w3.org/2000/svg" version="1.1">
 <metadata>
  <rdf:RDF xmlns:dc="http://purl.org/dc/elements/1.1/" xmlns:cc="http://creativecommons.org/ns#" xmlns:rdf="http://www.w3.org/1999/02/22-rdf-syntax-ns#">
   <cc:Work>
    <dc:type rdf:resource="http://purl.org/dc/dcmitype/StillImage"/>
    <dc:date>2024-08-23T08:26:58.195906</dc:date>
    <dc:format>image/svg+xml</dc:format>
    <dc:creator>
     <cc:Agent>
      <dc:title>Matplotlib v3.7.1, https://matplotlib.org/</dc:title>
     </cc:Agent>
    </dc:creator>
   </cc:Work>
  </rdf:RDF>
 </metadata>
 <defs>
  <style type="text/css">*{stroke-linejoin: round; stroke-linecap: butt}</style>
 </defs>
 <g id="figure_1">
  <g id="patch_1">
   <path d="M 0 345.6 
L 460.8 345.6 
L 460.8 0 
L 0 0 
L 0 345.6 
z
" style="fill: none"/>
  </g>
  <g id="axes_1">
   <g id="patch_2">
    <path d="M 57.6 307.584 
L 414.72 307.584 
L 414.72 41.472 
L 57.6 41.472 
L 57.6 307.584 
z
" style="fill: none"/>
   </g>
   <g id="matplotlib.axis_1">
    <g id="xtick_1">
     <g id="line2d_1">
      <defs>
       <path id="mbfcb4da45a" d="M 0 0 
L 0 3.5 
" style="stroke: #000000; stroke-width: 0.8"/>
      </defs>
      <g>
       <use xlink:href="#mbfcb4da45a" x="73.832727" y="307.584" style="stroke: #000000; stroke-width: 0.8"/>
      </g>
     </g>
     <g id="text_1">
      <!-- 0 -->
      <g transform="translate(70.651477 322.182437) scale(0.1 -0.1)">
       <defs>
        <path id="DejaVuSans-30" d="M 2034 4250 
Q 1547 4250 1301 3770 
Q 1056 3291 1056 2328 
Q 1056 1369 1301 889 
Q 1547 409 2034 409 
Q 2525 409 2770 889 
Q 3016 1369 3016 2328 
Q 3016 3291 2770 3770 
Q 2525 4250 2034 4250 
z
M 2034 4750 
Q 2819 4750 3233 4129 
Q 3647 3509 3647 2328 
Q 3647 1150 3233 529 
Q 2819 -91 2034 -91 
Q 1250 -91 836 529 
Q 422 1150 422 2328 
Q 422 3509 836 4129 
Q 1250 4750 2034 4750 
z
" transform="scale(0.015625)"/>
       </defs>
       <use xlink:href="#DejaVuSans-30"/>
      </g>
     </g>
    </g>
    <g id="xtick_2">
     <g id="line2d_2">
      <g>
       <use xlink:href="#mbfcb4da45a" x="152.841227" y="307.584" style="stroke: #000000; stroke-width: 0.8"/>
      </g>
     </g>
     <g id="text_2">
      <!-- 2 -->
      <g transform="translate(149.659977 322.182437) scale(0.1 -0.1)">
       <defs>
        <path id="DejaVuSans-32" d="M 1228 531 
L 3431 531 
L 3431 0 
L 469 0 
L 469 531 
Q 828 903 1448 1529 
Q 2069 2156 2228 2338 
Q 2531 2678 2651 2914 
Q 2772 3150 2772 3378 
Q 2772 3750 2511 3984 
Q 2250 4219 1831 4219 
Q 1534 4219 1204 4116 
Q 875 4013 500 3803 
L 500 4441 
Q 881 4594 1212 4672 
Q 1544 4750 1819 4750 
Q 2544 4750 2975 4387 
Q 3406 4025 3406 3419 
Q 3406 3131 3298 2873 
Q 3191 2616 2906 2266 
Q 2828 2175 2409 1742 
Q 1991 1309 1228 531 
z
" transform="scale(0.015625)"/>
       </defs>
       <use xlink:href="#DejaVuSans-32"/>
      </g>
     </g>
    </g>
    <g id="xtick_3">
     <g id="line2d_3">
      <g>
       <use xlink:href="#mbfcb4da45a" x="231.849726" y="307.584" style="stroke: #000000; stroke-width: 0.8"/>
      </g>
     </g>
     <g id="text_3">
      <!-- 4 -->
      <g transform="translate(228.668476 322.182437) scale(0.1 -0.1)">
       <defs>
        <path id="DejaVuSans-34" d="M 2419 4116 
L 825 1625 
L 2419 1625 
L 2419 4116 
z
M 2253 4666 
L 3047 4666 
L 3047 1625 
L 3713 1625 
L 3713 1100 
L 3047 1100 
L 3047 0 
L 2419 0 
L 2419 1100 
L 313 1100 
L 313 1709 
L 2253 4666 
z
" transform="scale(0.015625)"/>
       </defs>
       <use xlink:href="#DejaVuSans-34"/>
      </g>
     </g>
    </g>
    <g id="xtick_4">
     <g id="line2d_4">
      <g>
       <use xlink:href="#mbfcb4da45a" x="310.858226" y="307.584" style="stroke: #000000; stroke-width: 0.8"/>
      </g>
     </g>
     <g id="text_4">
      <!-- 6 -->
      <g transform="translate(307.676976 322.182437) scale(0.1 -0.1)">
       <defs>
        <path id="DejaVuSans-36" d="M 2113 2584 
Q 1688 2584 1439 2293 
Q 1191 2003 1191 1497 
Q 1191 994 1439 701 
Q 1688 409 2113 409 
Q 2538 409 2786 701 
Q 3034 994 3034 1497 
Q 3034 2003 2786 2293 
Q 2538 2584 2113 2584 
z
M 3366 4563 
L 3366 3988 
Q 3128 4100 2886 4159 
Q 2644 4219 2406 4219 
Q 1781 4219 1451 3797 
Q 1122 3375 1075 2522 
Q 1259 2794 1537 2939 
Q 1816 3084 2150 3084 
Q 2853 3084 3261 2657 
Q 3669 2231 3669 1497 
Q 3669 778 3244 343 
Q 2819 -91 2113 -91 
Q 1303 -91 875 529 
Q 447 1150 447 2328 
Q 447 3434 972 4092 
Q 1497 4750 2381 4750 
Q 2619 4750 2861 4703 
Q 3103 4656 3366 4563 
z
" transform="scale(0.015625)"/>
       </defs>
       <use xlink:href="#DejaVuSans-36"/>
      </g>
     </g>
    </g>
    <g id="xtick_5">
     <g id="line2d_5">
      <g>
       <use xlink:href="#mbfcb4da45a" x="389.866726" y="307.584" style="stroke: #000000; stroke-width: 0.8"/>
      </g>
     </g>
     <g id="text_5">
      <!-- 8 -->
      <g transform="translate(386.685476 322.182437) scale(0.1 -0.1)">
       <defs>
        <path id="DejaVuSans-38" d="M 2034 2216 
Q 1584 2216 1326 1975 
Q 1069 1734 1069 1313 
Q 1069 891 1326 650 
Q 1584 409 2034 409 
Q 2484 409 2743 651 
Q 3003 894 3003 1313 
Q 3003 1734 2745 1975 
Q 2488 2216 2034 2216 
z
M 1403 2484 
Q 997 2584 770 2862 
Q 544 3141 544 3541 
Q 544 4100 942 4425 
Q 1341 4750 2034 4750 
Q 2731 4750 3128 4425 
Q 3525 4100 3525 3541 
Q 3525 3141 3298 2862 
Q 3072 2584 2669 2484 
Q 3125 2378 3379 2068 
Q 3634 1759 3634 1313 
Q 3634 634 3220 271 
Q 2806 -91 2034 -91 
Q 1263 -91 848 271 
Q 434 634 434 1313 
Q 434 1759 690 2068 
Q 947 2378 1403 2484 
z
M 1172 3481 
Q 1172 3119 1398 2916 
Q 1625 2713 2034 2713 
Q 2441 2713 2670 2916 
Q 2900 3119 2900 3481 
Q 2900 3844 2670 4047 
Q 2441 4250 2034 4250 
Q 1625 4250 1398 4047 
Q 1172 3844 1172 3481 
z
" transform="scale(0.015625)"/>
       </defs>
       <use xlink:href="#DejaVuSans-38"/>
      </g>
     </g>
    </g>
    <g id="text_6">
     <!-- x -->
     <g transform="translate(233.200625 335.860562) scale(0.1 -0.1)">
      <defs>
       <path id="DejaVuSans-78" d="M 3513 3500 
L 2247 1797 
L 3578 0 
L 2900 0 
L 1881 1375 
L 863 0 
L 184 0 
L 1544 1831 
L 300 3500 
L 978 3500 
L 1906 2253 
L 2834 3500 
L 3513 3500 
z
" transform="scale(0.015625)"/>
      </defs>
      <use xlink:href="#DejaVuSans-78"/>
     </g>
    </g>
   </g>
   <g id="matplotlib.axis_2">
    <g id="ytick_1">
     <g id="line2d_6">
      <defs>
       <path id="mb77aec716b" d="M 0 0 
L -3.5 0 
" style="stroke: #000000; stroke-width: 0.8"/>
      </defs>
      <g>
       <use xlink:href="#mb77aec716b" x="57.6" y="295.488" style="stroke: #000000; stroke-width: 0.8"/>
      </g>
     </g>
     <g id="text_7">
      <!-- 0.00 -->
      <g transform="translate(28.334375 299.287219) scale(0.1 -0.1)">
       <defs>
        <path id="DejaVuSans-2e" d="M 684 794 
L 1344 794 
L 1344 0 
L 684 0 
L 684 794 
z
" transform="scale(0.015625)"/>
       </defs>
       <use xlink:href="#DejaVuSans-30"/>
       <use xlink:href="#DejaVuSans-2e" x="63.623047"/>
       <use xlink:href="#DejaVuSans-30" x="95.410156"/>
       <use xlink:href="#DejaVuSans-30" x="159.033203"/>
      </g>
     </g>
    </g>
    <g id="ytick_2">
     <g id="line2d_7">
      <g>
       <use xlink:href="#mb77aec716b" x="57.6" y="265.215059" style="stroke: #000000; stroke-width: 0.8"/>
      </g>
     </g>
     <g id="text_8">
      <!-- 0.25 -->
      <g transform="translate(28.334375 269.014277) scale(0.1 -0.1)">
       <defs>
        <path id="DejaVuSans-35" d="M 691 4666 
L 3169 4666 
L 3169 4134 
L 1269 4134 
L 1269 2991 
Q 1406 3038 1543 3061 
Q 1681 3084 1819 3084 
Q 2600 3084 3056 2656 
Q 3513 2228 3513 1497 
Q 3513 744 3044 326 
Q 2575 -91 1722 -91 
Q 1428 -91 1123 -41 
Q 819 9 494 109 
L 494 744 
Q 775 591 1075 516 
Q 1375 441 1709 441 
Q 2250 441 2565 725 
Q 2881 1009 2881 1497 
Q 2881 1984 2565 2268 
Q 2250 2553 1709 2553 
Q 1456 2553 1204 2497 
Q 953 2441 691 2322 
L 691 4666 
z
" transform="scale(0.015625)"/>
       </defs>
       <use xlink:href="#DejaVuSans-30"/>
       <use xlink:href="#DejaVuSans-2e" x="63.623047"/>
       <use xlink:href="#DejaVuSans-32" x="95.410156"/>
       <use xlink:href="#DejaVuSans-35" x="159.033203"/>
      </g>
     </g>
    </g>
    <g id="ytick_3">
     <g id="line2d_8">
      <g>
       <use xlink:href="#mb77aec716b" x="57.6" y="234.942117" style="stroke: #000000; stroke-width: 0.8"/>
      </g>
     </g>
     <g id="text_9">
      <!-- 0.50 -->
      <g transform="translate(28.334375 238.741336) scale(0.1 -0.1)">
       <use xlink:href="#DejaVuSans-30"/>
       <use xlink:href="#DejaVuSans-2e" x="63.623047"/>
       <use xlink:href="#DejaVuSans-35" x="95.410156"/>
       <use xlink:href="#DejaVuSans-30" x="159.033203"/>
      </g>
     </g>
    </g>
    <g id="ytick_4">
     <g id="line2d_9">
      <g>
       <use xlink:href="#mb77aec716b" x="57.6" y="204.669176" style="stroke: #000000; stroke-width: 0.8"/>
      </g>
     </g>
     <g id="text_10">
      <!-- 0.75 -->
      <g transform="translate(28.334375 208.468394) scale(0.1 -0.1)">
       <defs>
        <path id="DejaVuSans-37" d="M 525 4666 
L 3525 4666 
L 3525 4397 
L 1831 0 
L 1172 0 
L 2766 4134 
L 525 4134 
L 525 4666 
z
" transform="scale(0.015625)"/>
       </defs>
       <use xlink:href="#DejaVuSans-30"/>
       <use xlink:href="#DejaVuSans-2e" x="63.623047"/>
       <use xlink:href="#DejaVuSans-37" x="95.410156"/>
       <use xlink:href="#DejaVuSans-35" x="159.033203"/>
      </g>
     </g>
    </g>
    <g id="ytick_5">
     <g id="line2d_10">
      <g>
       <use xlink:href="#mb77aec716b" x="57.6" y="174.396234" style="stroke: #000000; stroke-width: 0.8"/>
      </g>
     </g>
     <g id="text_11">
      <!-- 1.00 -->
      <g transform="translate(28.334375 178.195453) scale(0.1 -0.1)">
       <defs>
        <path id="DejaVuSans-31" d="M 794 531 
L 1825 531 
L 1825 4091 
L 703 3866 
L 703 4441 
L 1819 4666 
L 2450 4666 
L 2450 531 
L 3481 531 
L 3481 0 
L 794 0 
L 794 531 
z
" transform="scale(0.015625)"/>
       </defs>
       <use xlink:href="#DejaVuSans-31"/>
       <use xlink:href="#DejaVuSans-2e" x="63.623047"/>
       <use xlink:href="#DejaVuSans-30" x="95.410156"/>
       <use xlink:href="#DejaVuSans-30" x="159.033203"/>
      </g>
     </g>
    </g>
    <g id="ytick_6">
     <g id="line2d_11">
      <g>
       <use xlink:href="#mb77aec716b" x="57.6" y="144.123293" style="stroke: #000000; stroke-width: 0.8"/>
      </g>
     </g>
     <g id="text_12">
      <!-- 1.25 -->
      <g transform="translate(28.334375 147.922511) scale(0.1 -0.1)">
       <use xlink:href="#DejaVuSans-31"/>
       <use xlink:href="#DejaVuSans-2e" x="63.623047"/>
       <use xlink:href="#DejaVuSans-32" x="95.410156"/>
       <use xlink:href="#DejaVuSans-35" x="159.033203"/>
      </g>
     </g>
    </g>
    <g id="ytick_7">
     <g id="line2d_12">
      <g>
       <use xlink:href="#mb77aec716b" x="57.6" y="113.850351" style="stroke: #000000; stroke-width: 0.8"/>
      </g>
     </g>
     <g id="text_13">
      <!-- 1.50 -->
      <g transform="translate(28.334375 117.64957) scale(0.1 -0.1)">
       <use xlink:href="#DejaVuSans-31"/>
       <use xlink:href="#DejaVuSans-2e" x="63.623047"/>
       <use xlink:href="#DejaVuSans-35" x="95.410156"/>
       <use xlink:href="#DejaVuSans-30" x="159.033203"/>
      </g>
     </g>
    </g>
    <g id="ytick_8">
     <g id="line2d_13">
      <g>
       <use xlink:href="#mb77aec716b" x="57.6" y="83.57741" style="stroke: #000000; stroke-width: 0.8"/>
      </g>
     </g>
     <g id="text_14">
      <!-- 1.75 -->
      <g transform="translate(28.334375 87.376628) scale(0.1 -0.1)">
       <use xlink:href="#DejaVuSans-31"/>
       <use xlink:href="#DejaVuSans-2e" x="63.623047"/>
       <use xlink:href="#DejaVuSans-37" x="95.410156"/>
       <use xlink:href="#DejaVuSans-35" x="159.033203"/>
      </g>
     </g>
    </g>
    <g id="ytick_9">
     <g id="line2d_14">
      <g>
       <use xlink:href="#mb77aec716b" x="57.6" y="53.304468" style="stroke: #000000; stroke-width: 0.8"/>
      </g>
     </g>
     <g id="text_15">
      <!-- 2.00 -->
      <g transform="translate(28.334375 57.103687) scale(0.1 -0.1)">
       <use xlink:href="#DejaVuSans-32"/>
       <use xlink:href="#DejaVuSans-2e" x="63.623047"/>
       <use xlink:href="#DejaVuSans-30" x="95.410156"/>
       <use xlink:href="#DejaVuSans-30" x="159.033203"/>
      </g>
     </g>
    </g>
    <g id="text_16">
     <!-- x^n/n! -->
     <g transform="translate(22.254687 191.703781) rotate(-90) scale(0.1 -0.1)">
      <defs>
       <path id="DejaVuSans-5e" d="M 2988 4666 
L 4684 2925 
L 4056 2925 
L 2681 4159 
L 1306 2925 
L 678 2925 
L 2375 4666 
L 2988 4666 
z
" transform="scale(0.015625)"/>
       <path id="DejaVuSans-6e" d="M 3513 2113 
L 3513 0 
L 2938 0 
L 2938 2094 
Q 2938 2591 2744 2837 
Q 2550 3084 2163 3084 
Q 1697 3084 1428 2787 
Q 1159 2491 1159 1978 
L 1159 0 
L 581 0 
L 581 3500 
L 1159 3500 
L 1159 2956 
Q 1366 3272 1645 3428 
Q 1925 3584 2291 3584 
Q 2894 3584 3203 3211 
Q 3513 2838 3513 2113 
z
" transform="scale(0.015625)"/>
       <path id="DejaVuSans-2f" d="M 1625 4666 
L 2156 4666 
L 531 -594 
L 0 -594 
L 1625 4666 
z
" transform="scale(0.015625)"/>
       <path id="DejaVuSans-21" d="M 966 794 
L 1600 794 
L 1600 0 
L 966 0 
L 966 794 
z
M 966 4666 
L 1600 4666 
L 1600 2619 
L 1538 1503 
L 1031 1503 
L 966 2619 
L 966 4666 
z
" transform="scale(0.015625)"/>
      </defs>
      <use xlink:href="#DejaVuSans-78"/>
      <use xlink:href="#DejaVuSans-5e" x="59.179688"/>
      <use xlink:href="#DejaVuSans-6e" x="142.96875"/>
      <use xlink:href="#DejaVuSans-2f" x="206.347656"/>
      <use xlink:href="#DejaVuSans-6e" x="240.039062"/>
      <use xlink:href="#DejaVuSans-21" x="303.417969"/>
     </g>
    </g>
   </g>
   <g id="line2d_15">
    <path d="M 73.832727 295.488 
L 75.414479 295.390933 
L 76.996231 295.09973 
L 78.577983 294.614393 
L 80.159734 293.934921 
L 82.136924 292.812578 
L 84.114114 291.3869 
L 86.091303 289.657886 
L 88.068493 287.625537 
L 90.045683 285.289851 
L 92.022872 282.65083 
L 94.3955 279.083601 
L 96.768128 275.079569 
L 99.140755 270.638733 
L 101.513383 265.761093 
L 104.281448 259.518443 
L 107.049514 252.681254 
L 109.817579 245.249528 
L 112.585645 237.223263 
L 115.749148 227.322383 
L 118.912652 216.644963 
L 122.076155 205.191004 
L 125.239659 192.960505 
L 128.7986 178.272987 
L 132.357542 162.60266 
L 135.916483 145.949526 
L 139.870863 126.293367 
L 143.825242 105.423865 
L 147.779621 83.34102 
L 151.734001 60.044832 
L 152.524877 55.239993 
L 152.524877 55.239993 
" clip-path="url(#p5d7edf7d48)" style="fill: none; stroke: #1f77b4; stroke-width: 1.5; stroke-linecap: square"/>
   </g>
   <g id="line2d_16">
    <path d="M 73.832727 295.488 
L 80.555172 295.388548 
L 84.114114 295.132216 
L 87.277617 294.692384 
L 90.045683 294.092858 
L 92.813748 293.249327 
L 95.186376 292.300515 
L 97.559003 291.115592 
L 99.931631 289.668325 
L 102.304259 287.93248 
L 104.676886 285.88182 
L 107.049514 283.490113 
L 109.422142 280.731124 
L 111.794769 277.578618 
L 114.167397 274.006361 
L 116.540024 269.988118 
L 118.912652 265.497656 
L 121.28528 260.508739 
L 123.657907 254.995132 
L 126.030535 248.930603 
L 128.403162 242.288916 
L 130.77579 235.043836 
L 133.148418 227.16913 
L 135.916483 217.151195 
L 138.684549 206.198901 
L 141.452614 194.270588 
L 144.22068 181.324597 
L 146.988745 167.31927 
L 149.756811 152.212945 
L 152.524877 135.963965 
L 155.68838 115.941091 
L 158.851884 94.30917 
L 162.015387 71.006019 
L 163.992577 55.565246 
L 163.992577 55.565246 
" clip-path="url(#p5d7edf7d48)" style="fill: none; stroke: #ff7f0e; stroke-width: 1.5; stroke-linecap: square"/>
   </g>
   <g id="line2d_17">
    <path d="M 73.832727 295.488 
L 88.859369 295.382373 
L 94.3955 295.117614 
L 98.745317 294.689999 
L 102.304259 294.126645 
L 105.467762 293.41308 
L 108.235828 292.58586 
L 111.003893 291.532942 
L 113.771959 290.216589 
L 116.144586 288.847871 
L 118.517214 287.228473 
L 120.889842 285.329508 
L 123.262469 283.120513 
L 125.635097 280.56945 
L 128.007725 277.642707 
L 130.380352 274.305093 
L 132.75298 270.519843 
L 135.125607 266.248617 
L 137.498235 261.451498 
L 139.870863 256.086995 
L 142.24349 250.11204 
L 144.616118 243.481989 
L 146.988745 236.150625 
L 149.361373 228.070152 
L 151.734001 219.1912 
L 154.106628 209.462824 
L 156.479256 198.832502 
L 158.851884 187.246137 
L 161.224511 174.648057 
L 163.597139 160.981012 
L 166.365204 143.606511 
L 169.13327 124.600779 
L 171.901335 103.864777 
L 174.669401 81.296546 
L 177.437467 56.791208 
L 177.437467 56.791208 
" clip-path="url(#p5d7edf7d48)" style="fill: none; stroke: #2ca02c; stroke-width: 1.5; stroke-linecap: square"/>
   </g>
   <g id="line2d_18">
    <path d="M 73.832727 295.488 
L 99.140755 295.379106 
L 106.258638 295.112011 
L 111.399331 294.703263 
L 115.749148 294.130827 
L 119.30809 293.448165 
L 122.471593 292.632833 
L 125.635097 291.575427 
L 128.403162 290.412237 
L 131.171228 288.987512 
L 133.543856 287.526578 
L 135.916483 285.814042 
L 138.289111 283.818723 
L 140.661738 281.506961 
L 143.034366 278.842526 
L 145.406994 275.786522 
L 147.779621 272.297295 
L 150.152249 268.330332 
L 152.524877 263.838175 
L 154.897504 258.77032 
L 157.270132 253.073124 
L 159.642759 246.689711 
L 162.015387 239.559877 
L 164.388015 231.619997 
L 166.760642 222.802926 
L 169.13327 213.037909 
L 171.505897 202.250485 
L 173.878525 190.362389 
L 176.251153 177.291465 
L 178.62378 162.951562 
L 180.996408 147.252446 
L 183.369036 130.099705 
L 185.741663 111.394649 
L 188.114291 91.034222 
L 190.486918 68.910905 
L 191.673232 57.153317 
L 191.673232 57.153317 
" clip-path="url(#p5d7edf7d48)" style="fill: none; stroke: #d62728; stroke-width: 1.5; stroke-linecap: square"/>
   </g>
   <g id="line2d_19">
    <path d="M 73.832727 295.488 
L 110.608455 295.378532 
L 118.912652 295.11662 
L 124.844221 294.7083 
L 129.589476 294.158452 
L 133.543856 293.48237 
L 137.102797 292.649368 
L 140.266301 291.683962 
L 143.034366 290.62821 
L 145.802432 289.338816 
L 148.570497 287.776124 
L 150.943125 286.18556 
L 153.315752 284.330535 
L 155.68838 282.176982 
L 158.061008 279.687646 
L 160.433635 276.821888 
L 162.806263 273.535484 
L 164.783453 270.440972 
L 166.760642 266.991183 
L 168.737832 263.154208 
L 170.715022 258.896038 
L 172.692211 254.180469 
L 174.669401 248.969011 
L 176.646591 243.220795 
L 178.62378 236.892478 
L 180.996408 228.467922 
L 183.369036 219.057306 
L 185.741663 208.570385 
L 188.114291 196.910853 
L 190.486918 183.976083 
L 192.859546 169.656852 
L 195.232174 153.837067 
L 197.604801 136.393483 
L 199.977429 117.195414 
L 202.350056 96.104437 
L 204.722684 72.974098 
L 206.304436 56.344804 
L 206.304436 56.344804 
" clip-path="url(#p5d7edf7d48)" style="fill: none; stroke: #9467bd; stroke-width: 1.5; stroke-linecap: square"/>
   </g>
   <g id="line2d_20">
    <path d="M 73.832727 295.488 
L 122.867031 295.378937 
L 131.962104 295.129122 
L 138.289111 294.748328 
L 143.429804 294.222348 
L 147.779621 293.553285 
L 151.338563 292.79945 
L 154.502066 291.930566 
L 157.66557 290.831317 
L 160.433635 289.642328 
L 163.201701 288.202074 
L 165.574328 286.73531 
L 167.946956 285.022395 
L 170.319584 283.029825 
L 172.692211 280.720543 
L 175.064839 278.053664 
L 177.042029 275.525763 
L 179.019218 272.689981 
L 180.996408 269.515683 
L 182.973598 265.969843 
L 184.950787 262.016907 
L 186.927977 257.618647 
L 188.905167 252.734017 
L 190.882356 247.318999 
L 192.859546 241.326445 
L 194.836736 234.705908 
L 196.813925 227.40348 
L 198.791115 219.36161 
L 200.768305 210.518926 
L 202.745494 200.810047 
L 205.118122 187.917734 
L 207.49075 173.549019 
L 209.863377 157.565616 
L 212.236005 139.81906 
L 214.608632 120.150163 
L 216.98126 98.388441 
L 219.353888 74.351522 
L 220.935639 56.967211 
L 220.935639 56.967211 
" clip-path="url(#p5d7edf7d48)" style="fill: none; stroke: #8c564b; stroke-width: 1.5; stroke-linecap: square"/>
   </g>
   <g id="line2d_21">
    <path d="M 73.832727 295.488 
L 135.521045 295.381814 
L 145.406994 295.139262 
L 152.129439 294.772859 
L 157.66557 294.252744 
L 162.015387 293.636562 
L 165.969766 292.858231 
L 169.528708 291.926827 
L 172.692211 290.86855 
L 175.460277 289.726505 
L 178.228342 288.344655 
L 180.60097 286.937721 
L 182.973598 285.294042 
L 185.346225 283.380261 
L 187.718853 281.159191 
L 190.09148 278.589474 
L 192.06867 276.148747 
L 194.04586 273.40496 
L 196.023049 270.326414 
L 198.000239 266.878691 
L 199.977429 263.024477 
L 201.954619 258.723364 
L 203.931808 253.931653 
L 205.908998 248.602137 
L 207.886188 242.683885 
L 209.863377 236.122009 
L 211.840567 228.857419 
L 213.817757 220.826574 
L 215.794946 211.961214 
L 217.772136 202.188084 
L 219.749326 191.428649 
L 221.726515 179.59879 
L 223.703705 166.608494 
L 225.680895 152.361524 
L 228.053522 133.461131 
L 230.42615 112.411892 
L 232.798778 89.007707 
L 235.171405 63.026258 
L 235.962281 53.752164 
L 235.962281 53.752164 
" clip-path="url(#p5d7edf7d48)" style="fill: none; stroke: #e377c2; stroke-width: 1.5; stroke-linecap: square"/>
   </g>
   <g id="line2d_22">
    <path d="M 73.832727 295.488 
L 148.965935 295.379346 
L 159.642759 295.128748 
L 166.760642 294.752008 
L 172.296773 294.249043 
L 177.042029 293.59554 
L 180.996408 292.833481 
L 184.555349 291.926077 
L 187.718853 290.898191 
L 190.486918 289.790815 
L 193.254984 288.452019 
L 196.023049 286.840541 
L 198.395677 285.206484 
L 200.768305 283.303507 
L 203.140932 281.093653 
L 205.51356 278.534464 
L 207.49075 276.100916 
L 209.467939 273.361676 
L 211.445129 270.283657 
L 213.422319 266.830749 
L 215.399508 262.96359 
L 217.376698 258.639331 
L 219.353888 253.811374 
L 221.331077 248.429111 
L 223.308267 242.437634 
L 225.285457 235.777439 
L 227.262646 228.384107 
L 229.239836 220.187972 
L 231.217026 211.113768 
L 233.194215 201.08026 
L 235.171405 189.999855 
L 237.148595 177.778192 
L 239.125785 164.31371 
L 241.102974 149.497199 
L 243.080164 133.211323 
L 245.057354 115.330124 
L 247.034543 95.718501 
L 249.407171 69.69581 
L 250.593485 55.588196 
L 250.593485 55.588196 
" clip-path="url(#p5d7edf7d48)" style="fill: none; stroke: #7f7f7f; stroke-width: 1.5; stroke-linecap: square"/>
   </g>
   <g id="line2d_23">
    <path d="M 73.832727 295.488 
L 162.410825 295.380804 
L 173.483087 295.139902 
L 180.996408 294.767905 
L 186.927977 294.253881 
L 191.673232 293.626516 
L 195.627612 292.898572 
L 199.186553 292.034263 
L 202.350056 291.056709 
L 205.51356 289.836821 
L 208.281626 288.529977 
L 211.049691 286.957167 
L 213.422319 285.361864 
L 215.794946 283.502913 
L 218.167574 281.342271 
L 220.540202 278.837174 
L 222.517391 276.452024 
L 224.494581 273.763667 
L 226.471771 270.738311 
L 228.44896 267.338916 
L 230.42615 263.524925 
L 232.40334 259.251986 
L 234.380529 254.471648 
L 236.357719 249.131043 
L 238.334909 243.172545 
L 240.312098 236.533406 
L 242.289288 229.145369 
L 244.266478 220.934266 
L 246.243667 211.819576 
L 248.220857 201.713968 
L 250.198047 190.522813 
L 252.175236 178.143668 
L 254.152426 164.465729 
L 256.129616 149.369249 
L 258.106805 132.724933 
L 260.083995 114.393288 
L 262.061185 94.223942 
L 264.038374 72.054926 
L 265.224688 57.721692 
L 265.224688 57.721692 
" clip-path="url(#p5d7edf7d48)" style="fill: none; stroke: #bcbd22; stroke-width: 1.5; stroke-linecap: square"/>
   </g>
   <g id="line2d_24">
    <path d="M 73.832727 295.488 
L 176.251153 295.380096 
L 187.718853 295.141219 
L 195.627612 294.762234 
L 201.559181 294.263479 
L 206.304436 293.658925 
L 210.654253 292.87839 
L 214.213195 292.026611 
L 217.376698 291.065056 
L 220.540202 289.866509 
L 223.308267 288.583244 
L 226.076333 287.038976 
L 228.44896 285.472264 
L 230.821588 283.645753 
L 233.194215 281.521293 
L 235.566843 279.05583 
L 237.544033 276.705981 
L 239.521222 274.054516 
L 241.498412 271.067028 
L 243.475602 267.705665 
L 245.452791 263.928832 
L 247.429981 259.690867 
L 249.407171 254.941703 
L 251.384361 249.626498 
L 253.36155 243.685239 
L 255.33874 237.052325 
L 257.31593 229.656112 
L 259.293119 221.418435 
L 261.270309 212.254093 
L 263.247499 202.0703 
L 265.224688 190.766103 
L 267.201878 178.231757 
L 269.179068 164.348066 
L 271.156257 148.985672 
L 273.133447 132.004313 
L 275.110637 113.252019 
L 277.087826 92.564272 
L 279.065016 69.763105 
L 280.25133 54.988567 
L 280.25133 54.988567 
" clip-path="url(#p5d7edf7d48)" style="fill: none; stroke: #17becf; stroke-width: 1.5; stroke-linecap: square"/>
   </g>
   <g id="line2d_25">
    <path d="M 73.832727 295.488 
L 190.09148 295.381301 
L 202.350056 295.132703 
L 210.258815 294.76052 
L 216.190384 294.275667 
L 221.331077 293.632343 
L 225.680895 292.857935 
L 229.239836 292.015019 
L 232.40334 291.064925 
L 235.566843 289.881763 
L 238.334909 288.615547 
L 241.102974 287.091927 
L 243.475602 285.545873 
L 245.848229 283.742734 
L 248.220857 281.644214 
L 250.593485 279.206963 
L 252.570674 276.882 
L 254.547864 274.256231 
L 256.525054 271.294679 
L 258.502243 267.958751 
L 260.479433 264.205909 
L 262.456623 259.989309 
L 264.433812 255.257424 
L 266.411002 249.953631 
L 268.388192 244.015765 
L 270.365381 237.375648 
L 272.342571 229.958569 
L 274.319761 221.682742 
L 276.296951 212.458711 
L 278.27414 202.188717 
L 280.25133 190.766025 
L 282.22852 178.074192 
L 284.205709 163.986297 
L 286.182899 148.364104 
L 288.160089 131.057178 
L 290.137278 111.901938 
L 292.114468 90.720644 
L 294.091658 67.320317 
L 294.882533 57.292537 
L 294.882533 57.292537 
" clip-path="url(#p5d7edf7d48)" style="fill: none; stroke: #1f77b4; stroke-width: 1.5; stroke-linecap: square"/>
   </g>
   <g id="line2d_26">
    <path d="M 73.832727 295.488 
L 204.327246 295.379566 
L 216.585822 295.139601 
L 224.890019 294.761381 
L 231.217026 294.249309 
L 236.357719 293.606836 
L 240.707536 292.836175 
L 244.266478 291.999109 
L 247.825419 290.923768 
L 250.988923 289.719045 
L 253.756988 288.430821 
L 256.525054 286.881459 
L 258.897681 285.309611 
L 261.270309 283.476385 
L 263.642937 281.342476 
L 266.015564 278.863276 
L 267.992754 276.49724 
L 269.969944 273.823696 
L 271.947133 270.806396 
L 273.924323 267.405248 
L 275.901513 263.575954 
L 277.878702 259.269616 
L 279.855892 254.43231 
L 281.833082 249.004628 
L 283.810271 242.921178 
L 285.787461 236.110048 
L 287.764651 228.492228 
L 289.74184 219.980985 
L 291.71903 210.481187 
L 293.69622 199.888584 
L 295.673409 188.089023 
L 297.650599 174.957612 
L 299.627789 160.35782 
L 301.604978 144.140506 
L 303.582168 126.142886 
L 305.559358 106.187414 
L 307.536547 84.080592 
L 309.513737 59.61169 
L 309.909175 54.414622 
L 309.909175 54.414622 
" clip-path="url(#p5d7edf7d48)" style="fill: none; stroke: #ff7f0e; stroke-width: 1.5; stroke-linecap: square"/>
   </g>
   <g id="line2d_27">
    <path d="M 73.832727 295.488 
L 218.563012 295.378975 
L 231.217026 295.135505 
L 239.521222 294.763921 
L 245.848229 294.264401 
L 250.988923 293.640087 
L 255.33874 292.892823 
L 259.293119 291.978791 
L 262.852061 290.908902 
L 266.015564 289.711069 
L 268.78363 288.430575 
L 271.551695 286.890553 
L 273.924323 285.327931 
L 276.296951 283.504908 
L 278.669578 281.381929 
L 281.042206 278.913996 
L 283.019395 276.557206 
L 284.996585 273.892313 
L 286.973775 270.882503 
L 288.950964 267.486969 
L 290.928154 263.66052 
L 292.905344 259.35316 
L 294.882533 254.509625 
L 296.859723 249.068882 
L 298.836913 242.963593 
L 300.814103 236.119522 
L 302.791292 228.454898 
L 304.768482 219.879733 
L 306.745672 210.295071 
L 308.722861 199.592185 
L 310.700051 187.65171 
L 312.677241 174.342701 
L 314.65443 159.521624 
L 316.63162 143.031263 
L 318.60881 124.699544 
L 320.585999 104.338274 
L 322.563189 81.741771 
L 324.540379 56.685408 
L 324.540379 56.685408 
" clip-path="url(#p5d7edf7d48)" style="fill: none; stroke: #2ca02c; stroke-width: 1.5; stroke-linecap: square"/>
   </g>
   <g id="line2d_28">
    <path d="M 73.832727 295.488 
L 232.798778 295.379226 
L 245.848229 295.132801 
L 254.152426 294.767548 
L 260.479433 294.279455 
L 265.620126 293.671402 
L 269.969944 292.944933 
L 273.924323 292.057239 
L 277.483264 291.018683 
L 280.646768 289.85606 
L 283.414833 288.613031 
L 286.182899 287.117586 
L 288.555527 285.599507 
L 290.928154 283.827482 
L 293.300782 281.762524 
L 295.673409 279.360183 
L 297.650599 277.064203 
L 299.627789 274.465987 
L 301.604978 271.528931 
L 303.582168 268.212378 
L 305.559358 264.471205 
L 307.536547 260.255384 
L 309.513737 255.509493 
L 311.490927 250.172189 
L 313.468116 244.175634 
L 315.445306 237.444869 
L 317.422496 229.897135 
L 319.399686 221.441134 
L 321.376875 211.976232 
L 323.354065 201.391587 
L 325.331255 189.56521 
L 327.308444 176.362943 
L 329.285634 161.637361 
L 331.262824 145.226574 
L 333.240013 126.952937 
L 335.217203 106.621657 
L 337.194393 84.01929 
L 339.171582 58.912111 
L 339.56702 53.568 
L 339.56702 53.568 
" clip-path="url(#p5d7edf7d48)" style="fill: none; stroke: #d62728; stroke-width: 1.5; stroke-linecap: square"/>
   </g>
   <g id="line2d_29">
    <path d="M 73.832727 295.488 
L 247.034543 295.380097 
L 260.083995 295.14303 
L 268.78363 294.77186 
L 275.110637 294.2942 
L 280.25133 293.700791 
L 284.601147 292.992931 
L 288.555527 292.128733 
L 292.114468 291.11809 
L 295.277971 289.986823 
L 298.046037 288.777171 
L 300.814103 287.321471 
L 303.18673 285.843158 
L 305.559358 284.116728 
L 307.931985 282.103735 
L 310.304613 279.760266 
L 312.281803 277.518988 
L 314.258992 274.980889 
L 316.236182 272.109599 
L 318.213372 268.864643 
L 320.190561 265.201021 
L 322.167751 261.068742 
L 324.144941 256.412318 
L 326.12213 251.170213 
L 328.09932 245.274236 
L 330.07651 238.648886 
L 332.053699 231.210629 
L 334.030889 222.86712 
L 336.008079 213.516353 
L 337.985269 203.045729 
L 339.962458 191.331055 
L 341.939648 178.235447 
L 343.916838 163.608143 
L 345.894027 147.283217 
L 347.871217 129.078176 
L 349.848407 108.792449 
L 351.825596 86.205744 
L 353.802786 61.076275 
L 354.198224 55.722347 
L 354.198224 55.722347 
" clip-path="url(#p5d7edf7d48)" style="fill: none; stroke: #9467bd; stroke-width: 1.5; stroke-linecap: square"/>
   </g>
   <g id="line2d_30">
    <path d="M 73.832727 295.488 
L 261.665747 295.377535 
L 275.110637 295.130204 
L 283.810271 294.753419 
L 290.137278 294.271205 
L 295.277971 293.674034 
L 299.627789 292.963086 
L 303.582168 292.096225 
L 307.14111 291.083293 
L 310.304613 289.95 
L 313.072679 288.73846 
L 315.840744 287.280574 
L 318.213372 285.799939 
L 320.585999 284.070505 
L 322.958627 282.05348 
L 325.331255 279.704484 
L 327.308444 277.457021 
L 329.285634 274.910832 
L 331.262824 272.028994 
L 333.240013 268.770362 
L 335.217203 265.089118 
L 337.194393 260.934289 
L 339.171582 256.249207 
L 341.148772 250.970924 
L 343.125962 245.029574 
L 345.103151 238.347667 
L 347.080341 230.839329 
L 349.057531 222.409459 
L 351.03472 212.95282 
L 353.01191 202.353044 
L 354.9891 190.481542 
L 356.966289 177.196326 
L 358.943479 162.34072 
L 360.920669 145.741959 
L 362.897858 127.209665 
L 364.875048 106.534195 
L 366.852238 83.484841 
L 368.829428 57.807876 
L 368.829428 57.807876 
" clip-path="url(#p5d7edf7d48)" style="fill: none; stroke: #8c564b; stroke-width: 1.5; stroke-linecap: square"/>
   </g>
   <g id="line2d_31">
    <path d="M 73.832727 295.488 
L 275.901513 295.379315 
L 289.346402 295.141477 
L 298.046037 294.781536 
L 304.768482 294.285663 
L 309.909175 293.700966 
L 314.258992 293.005672 
L 318.213372 292.158436 
L 321.772313 291.168728 
L 324.935817 290.061474 
L 327.703882 288.877637 
L 330.471948 287.452751 
L 332.844575 286.005165 
L 335.217203 284.313681 
L 337.589831 282.339996 
L 339.962458 280.040224 
L 341.939648 277.838627 
L 343.916838 275.342991 
L 345.894027 272.516641 
L 347.871217 269.318644 
L 349.848407 265.703356 
L 351.825596 261.619914 
L 353.802786 257.011688 
L 355.779976 251.815672 
L 357.757165 245.961824 
L 359.734355 239.37233 
L 361.711545 231.960812 
L 363.688734 223.631452 
L 365.665924 214.278036 
L 367.643114 203.782908 
L 369.620303 192.015828 
L 371.597493 178.832727 
L 373.574683 164.074342 
L 375.551872 147.564734 
L 377.529062 129.109668 
L 379.506252 108.494851 
L 381.483441 85.484008 
L 383.460631 59.816796 
L 383.856069 54.339851 
L 383.856069 54.339851 
" clip-path="url(#p5d7edf7d48)" style="fill: none; stroke: #e377c2; stroke-width: 1.5; stroke-linecap: square"/>
   </g>
   <g id="line2d_32">
    <path d="M 73.832727 295.488 
L 290.532716 295.377565 
L 303.977606 295.141413 
L 312.677241 294.786581 
L 319.399686 294.299454 
L 324.935817 293.672583 
L 329.285634 292.972099 
L 333.240013 292.119406 
L 336.798955 291.123978 
L 339.962458 290.010758 
L 342.730524 288.820776 
L 345.498589 287.388584 
L 347.871217 285.933517 
L 350.243845 284.233089 
L 352.616472 282.248581 
L 354.9891 279.935575 
L 356.966289 277.72063 
L 358.943479 275.209037 
L 360.920669 272.363545 
L 362.897858 269.142534 
L 364.875048 265.499538 
L 366.852238 261.382716 
L 368.829428 256.734276 
L 370.806617 251.48984 
L 372.783807 245.57774 
L 374.760997 238.918259 
L 376.738186 231.422778 
L 378.715376 222.992859 
L 380.692566 213.51923 
L 382.669755 202.880671 
L 384.646945 190.942802 
L 386.624135 177.55675 
L 388.601324 162.557695 
L 390.578514 145.763276 
L 392.555704 126.971857 
L 394.532893 105.960626 
L 396.510083 82.483523 
L 398.487273 56.268984 
L 398.487273 56.268984 
" clip-path="url(#p5d7edf7d48)" style="fill: none; stroke: #7f7f7f; stroke-width: 1.5; stroke-linecap: square"/>
   </g>
   <g id="patch_3">
    <path d="M 57.6 307.584 
L 57.6 41.472 
" style="fill: none; stroke: #000000; stroke-width: 0.8; stroke-linejoin: miter; stroke-linecap: square"/>
   </g>
   <g id="patch_4">
    <path d="M 414.72 307.584 
L 414.72 41.472 
" style="fill: none; stroke: #000000; stroke-width: 0.8; stroke-linejoin: miter; stroke-linecap: square"/>
   </g>
   <g id="patch_5">
    <path d="M 57.6 307.584 
L 414.72 307.584 
" style="fill: none; stroke: #000000; stroke-width: 0.8; stroke-linejoin: miter; stroke-linecap: square"/>
   </g>
   <g id="patch_6">
    <path d="M 57.6 41.472 
L 414.72 41.472 
" style="fill: none; stroke: #000000; stroke-width: 0.8; stroke-linejoin: miter; stroke-linecap: square"/>
   </g>
  </g>
 </g>
 <defs>
  <clipPath id="p5d7edf7d48">
   <rect x="57.6" y="41.472" width="357.12" height="266.112"/>
  </clipPath>
 </defs>
</svg>
